# xmcd
#
# Track frame offsets:
#	150
#	14891
#	28347
#	42178
#	54051
#	67960
#	82979
#	93954
#	107496
#	125659
#	140290
#	157474
#	170328
#	185465
#	202040
#
# Disc length: 2924
#
# Revision: 1
# Processed by: cddbd v1.5.2PL0 Copyright (c) Steve Scherf et al.
# Submitted via: kJams Pro (development) 1.0patch47.45
#
DISCID=cd0b6a0f
DTITLE=Various Artist - CB 60135
DYEAR=1980
DGENRE=Country
TTITLE0=Conway Twitty - You've Never Been This Far Before
TTITLE1=Jimmy Wakely - One Has My Name, The Other Has My Heart
TTITLE2=Connie Francis - Don't Break Thre Heart That Loves You
TTITLE3=Tennessee Ernie Ford - Tennessee Local
TTITLE4=Gene Autry - Twilight On The Trail
TTITLE5=Patsy Cline - In Care Of The Blues
TTITLE6=Jim Reeves - Blue Boy
TTITLE7=Don Gibson - Too Soon To Know
TTITLE8=Dolly Parton - Full Circle
TTITLE9=Merle Haggard - A Working Man Can't Get Nowhere Today
TTITLE10=Conway Twitty - Don't Take It Away
TTITLE11=Connie Francis - Among My Souvenirs
TTITLE12=Statler Brothers - The Movies
TTITLE13=Emmylou Harris - Heaven Only Knows
TTITLE14=Bertie Higgins - Key Largo
EXTD=
EXTT0=
EXTT1=
EXTT2=
EXTT3=
EXTT4=
EXTT5=
EXTT6=
EXTT7=
EXTT8=
EXTT9=
EXTT10=
EXTT11=
EXTT12=
EXTT13=
EXTT14=
PLAYORDER=
